<svg xmlns="http://www.w3.org/2000/svg" viewBox="0 0 159.29 161.13" fill="#ffca92"><path d="M82.75,26.24c-8.27,8.3-11.78,24-14.19,40.91h5.75a9.66,9.66,0,0,1,9.63,9.63h0a9.66,9.66,0,0,1-9.63,9.62h-8.2c-3,23.83-6.65,47.77-21,62-11.8,11.84-32.53,12.17-34.83,12.17a9.4,9.4,0,0,1,0-18.8c3.85,0,16.21-1.27,21.57-6.63,9.53-9.57,12.74-28.94,15.24-48.78H39.56a9.65,9.65,0,0,1-9.63-9.62h0a9.65,9.65,0,0,1,9.63-9.63h10C52.44,46,56.76,25.68,69.49,13,86.41-3.89,120.58.34,124.44.81a9.49,9.49,0,1,1-2.64,18.8c-7.33-1.13-30.31-2.11-39,6.63M136.42,123,158,101.44a9.4,9.4,0,0,0-13.26-13.26l-21.57,21.53L101.55,88.18a9.4,9.4,0,0,0-13.26,13.26L109.82,123,88.29,144.59a9.4,9.4,0,0,0,12.23,14.27,9,9,0,0,0,1-1l21.57-21.53,21.57,21.53A9.4,9.4,0,0,0,158,144.59Z" transform="translate(-0.92)"/></svg>
