<svg xmlns="http://www.w3.org/2000/svg" viewBox="0 0 146.98 144.62" fill="#caa9fa"><path d="M95.81,75.79C93.23,87.1,85,102.49,70.64,102.49c-7.78,0-11.29-6-9.56-15.56C64,71,75.11,58.29,86.25,58.29q13,0,9.56,17.5m11.64-27.14-.57,1.15c-3.17-4.95-9.52-7.95-17.65-7.95-22.1,0-43,19.8-47.5,44.55C38.18,106,47.47,119.1,65,119.1c8.66,0,18.09-4.24,24.55-10.6,1.43,6.71,7.41,10.78,16.25,10.78,22.81,0,41.89-19.45,47.11-48.26C159.65,33.71,136.33,8.25,96,8.25c-41.9,0-80.16,31.65-87.59,72.67C.8,123,26,152.87,69.29,152.87a101.78,101.78,0,0,0,49.4-12.47c14.86-8.21,7-22.28-5.53-15.05-11.84,6.83-24.77,10.2-39.49,10.2-33.06,0-51.54-21.93-45.65-54.46C34,48.39,60.74,25.4,92.74,25.4c30.94,0,47.26,18.21,42,47-3.2,17.68-12.66,29.88-22.74,29.88-6.19,0-6.61-4.24-1.09-18.39,4.7-12,8.69-22.23,13.25-34.47C128.12,39,111.34,37.48,107.45,48.65Z" transform="translate(-7.07 -8.25)"/></svg>
