<svg xmlns="http://www.w3.org/2000/svg" viewBox="0 0 127.38 142" fill="#9ae7a9"><path d="M113.44,127.32a11,11,0,1,1,8.91-12.69,10.79,10.79,0,0,1-8.91,12.69m3.24,18.49c16.11-2.83,26-18.7,23.24-34.26-2.69-15.37-17-27.2-33.5-24.31C90.31,90.06,80.18,105.42,83,121.53S100.58,148.63,116.68,145.81ZM50.52,53.75a11,11,0,1,1-3.79-21.6,10.64,10.64,0,0,1,12.69,8.91c1,5.49-2,11.47-8.9,12.69m3.24,18.49C69.68,69.44,79.78,53.9,77,38c-2.82-16.11-17.76-27.07-33.5-24.31C27.57,16.46,17.46,32,20.25,47.92,23.08,64,38,75,53.76,72.24ZM32.42,146.17C46.47,105.57,71,91.93,93,79.7,116.51,66.61,137.5,54.93,144.12,19a8,8,0,1,0-15.72-2.87c-5.25,28.49-23.14,38.45-43.2,49.61C60.69,79.36,33.36,94.57,17.31,141a8,8,0,0,0,15.11,5.21" transform="translate(-16.87 -9.56)"/></svg>
