<svg xmlns="http://www.w3.org/2000/svg" viewBox="0 0 90.4 161.13" fill="#b6f6fd"><path d="M57.75,143.89c-11.07-3.62-18.94-11.75-21.81-22.33-4.38-16.14,17.43-21.09,21.34-9,2.45,7.55,8.87,12,17.36,12a22.2,22.2,0,0,0,22.18-18.21c4.66-25.74-49.69-19.06-42.61-58.16A40.82,40.82,0,0,1,80.83,16.54l1.29-7.16C84.27-2.47,106.27-4,103.75,10l-.86,4.74c11.29,2.22,19.35,9.29,22.29,19.36,4.43,15.18-17.76,19.1-21.08,8.5-1.63-5.2-5.72-8.14-11.81-8.14-8.35,0-15,5.52-16.4,13-4.15,22.89,50.17,17.38,42.6,59.16a47.6,47.6,0,0,1-39.28,38.77l-1,5.78c-2.52,13.92-24,12.43-21.83.57Z" transform="translate(-35.36)"/></svg>
