<?xml version="1.0" standalone="no"?>
<!DOCTYPE svg PUBLIC "-//W3C//DTD SVG 20010904//EN"
 "http://www.w3.org/TR/2001/REC-SVG-20010904/DTD/svg10.dtd">
<svg version="1.0" xmlns="http://www.w3.org/2000/svg"
 width="952.000000pt" height="952.000000pt" viewBox="0 0 952.000000 952.000000"
 preserveAspectRatio="xMidYMid meet">
<metadata>
Created by potrace 1.14, written by Peter Selinger 2001-2017
</metadata>
<g transform="translate(0.000000,952.000000) scale(0.100000,-0.100000)"
fill="#000000" stroke="none">
<path d="M3093 9392 c-49 -64 -113 -153 -143 -197 -29 -44 -57 -82 -61 -85 -3
-3 -14 -21 -24 -40 -10 -19 -21 -37 -25 -40 -4 -3 -47 -72 -95 -155 -48 -82
-100 -170 -114 -195 -64 -108 -200 -395 -276 -580 -26 -63 -53 -128 -60 -145
-21 -49 -93 -261 -136 -400 -40 -127 -44 -142 -54 -186 -2 -12 -11 -45 -19
-73 -14 -50 -60 -252 -70 -311 -3 -16 -8 -41 -11 -55 -11 -57 -29 -166 -40
-245 -32 -229 -38 -289 -52 -510 -13 -207 -7 -667 11 -825 2 -19 7 -70 11
-113 3 -43 8 -86 10 -95 1 -9 6 -42 9 -73 4 -31 9 -67 11 -80 3 -13 8 -44 11
-69 3 -25 8 -55 10 -67 2 -13 6 -33 8 -45 2 -13 7 -41 11 -63 3 -22 8 -48 11
-57 3 -10 7 -30 10 -45 2 -16 8 -46 13 -68 11 -44 21 -92 22 -100 0 -2 5 -19
10 -37 6 -18 12 -44 15 -58 3 -14 14 -56 25 -95 11 -38 22 -77 24 -85 6 -25
52 -169 85 -270 35 -106 148 -395 187 -480 95 -207 246 -501 299 -582 13 -21
24 -40 24 -43 0 -11 185 -294 263 -402 126 -176 146 -206 151 -233 12 -66 172
-420 242 -536 10 -18 34 -58 53 -90 19 -33 38 -60 43 -62 4 -2 8 -8 8 -14 0
-5 8 -20 18 -33 9 -12 24 -33 32 -45 27 -40 154 -206 200 -261 71 -85 308
-318 390 -384 41 -33 77 -63 80 -66 10 -11 216 -156 260 -183 25 -15 68 -41
95 -58 115 -70 383 -202 475 -233 3 -1 12 -4 20 -8 32 -13 166 -59 180 -62 8
-2 34 -10 58 -19 23 -8 43 -15 45 -15 4 1 62 -13 77 -18 8 -3 22 -7 30 -9 8
-2 60 -13 115 -25 109 -23 103 -22 190 -33 33 -4 71 -10 85 -12 83 -13 190
-18 380 -18 275 0 330 3 330 20 0 55 -168 421 -275 600 -36 59 -65 111 -65
115 0 4 -4 9 -8 11 -7 2 -85 112 -124 173 -4 6 14 10 50 11 67 2 196 12 232
18 14 2 43 7 65 10 71 9 176 26 246 41 38 8 81 17 96 20 16 2 78 19 138 36 61
17 115 32 120 33 6 2 17 6 25 9 8 3 44 15 80 27 84 28 290 111 357 144 29 14
55 26 57 26 3 0 21 9 40 21 l35 20 -32 37 c-45 51 -272 279 -332 333 -71 64
-267 215 -355 274 -41 28 -77 52 -80 55 -3 3 -63 40 -135 82 -169 99 -387 203
-550 263 -71 26 -139 51 -150 56 -45 18 -238 73 -295 84 -8 2 -33 8 -55 14
-22 5 -56 13 -75 16 -19 2 -57 10 -85 15 -51 11 -72 15 -159 26 -27 3 -56 7
-65 9 -64 12 -231 19 -428 20 -128 0 -233 3 -233 6 0 3 15 13 33 22 112 58
459 295 512 351 6 6 35 31 65 56 116 95 262 239 405 401 53 59 180 221 231
294 27 39 52 72 56 73 5 2 8 8 8 13 0 6 18 37 40 70 22 33 40 64 40 69 0 5 4
10 8 12 19 7 189 342 249 488 69 168 155 427 178 533 2 12 11 51 20 86 13 53
29 142 51 271 11 68 15 152 8 147 -5 -2 -36 -8 -69 -12 -32 -3 -62 -8 -65 -10
-3 -2 -27 -6 -55 -9 -70 -9 -323 -68 -430 -101 -49 -15 -94 -28 -100 -29 -5
-2 -17 -6 -25 -9 -29 -13 -103 -37 -111 -37 -4 0 -2 18 6 40 8 22 12 40 10 40
-3 0 0 11 5 25 9 24 13 40 25 103 3 15 8 35 11 44 3 10 7 30 10 45 3 16 9 44
14 63 5 19 11 51 14 70 3 19 8 45 10 56 17 84 47 300 62 449 24 247 24 714 0
960 -12 117 -17 163 -21 185 -3 14 -8 45 -11 70 -3 25 -7 54 -9 65 -1 11 -6
38 -9 60 -3 22 -8 51 -11 65 -3 14 -8 40 -11 59 -3 18 -8 43 -11 55 -2 11 -6
30 -8 41 -1 11 -8 38 -13 60 -6 22 -13 51 -16 65 -10 51 -37 156 -45 180 -5
14 -14 45 -22 70 -7 25 -16 49 -19 53 -6 7 -35 -9 -144 -76 -46 -28 -291 -191
-296 -196 -3 -4 -32 -26 -65 -50 -70 -52 -253 -197 -276 -220 -9 -9 -39 -34
-65 -56 -27 -22 -140 -131 -251 -242 -112 -111 -203 -197 -203 -190 0 15 -87
344 -97 367 -7 17 -10 26 -17 55 -19 79 -172 481 -233 615 -35 76 -201 412
-213 430 -5 8 -38 65 -73 125 -87 152 -88 153 -124 207 -18 26 -33 50 -33 53
0 3 -5 11 -10 18 -6 7 -29 41 -53 77 -23 36 -45 67 -48 70 -3 3 -21 28 -40 55
-35 51 -115 158 -155 207 l-22 28 -89 -118z"/>
</g>
</svg>
